;Holesize 1 =   26.0 PLATED MILS
;Holesize 2 =   45.0 PLATED MILS
;Holesize 3 =   36.0 PLATED MILS
;Holesize 4 =   28.0 PLATED MILS
;Holesize 5 =   63.0 PLATED MILS
;Holesize 6 =   40.0 PLATED MILS
;Holesize 7 =   35.0 PLATED MILS
;Holesize 8 =  125.0 PLATED MILS
M48
INCH
T01C0.026
T02C0.045
T03C0.036
T04C0.028
T05C0.063
T06C0.040
T07C0.035
T08C0.125
%
G05
G90
T01
X013000Y-000510
X013000Y-001510
X015000Y-000510
X015000Y-001510
X023510Y013800
X024510Y013800
X021510Y013800
X022510Y013800
X026510Y012800
X027510Y012800
X003550Y-014200
X004550Y-014200
X-000650Y-014200
X000350Y-014200
X-005650Y-014200
X-004650Y-014200
X-010650Y-014200
X-009650Y-014200
X022400Y003750
X022400Y004750
X022400Y-001250
X022400Y-000250
X022400Y-006050
X022400Y-005050
X022400Y-011050
X022400Y-010050
X001250Y011800
X000250Y011800
X-003150Y011800
X-004150Y011800
X006450Y011800
X005450Y011800
X011250Y011800
X010250Y011800
X-013850Y000800
X-012850Y000800
X-013850Y003000
X-012850Y003000
X013000Y-003400
X015000Y-003400
X018600Y004200
X020400Y-015000
X020400Y006800
X026800Y006800
X011600Y-014400
X025000Y-014600
T02
X019400Y013800
X015400Y013800
X001600Y-016200
X002600Y-016200
X003600Y-016200
X-002600Y-016200
X-001600Y-016200
X-000600Y-016200
X-007600Y-016200
X-006600Y-016200
X-005600Y-016200
X-012600Y-016200
X-011600Y-016200
X-010600Y-016200
X024400Y001800
X024400Y002800
X024400Y003800
X024400Y-003200
X024400Y-002200
X024400Y-001200
X024400Y-008200
X024400Y-007200
X024400Y-006200
X024400Y-013200
X024400Y-012200
X024400Y-011200
X-001200Y013800
X-002200Y013800
X-003200Y013800
X003400Y013800
X002400Y013800
X001400Y013800
X008400Y013800
X007400Y013800
X006400Y013800
X013400Y013800
X012400Y013800
X011400Y013800
X-015000Y-002400
X-015000Y-003400
X-015000Y-004400
X-017600Y010800
X-018600Y010800
X-019600Y010800
T03
X015400Y015600
X016400Y015600
X017400Y015600
X018400Y015600
X-001600Y003800
X-001600Y002800
X-002600Y003800
X-002600Y002800
X-003600Y003800
X-003600Y002800
X-004600Y003800
X-004600Y002800
X-005600Y003800
X-005600Y002800
X-006600Y003800
X-006600Y002800
X013000Y-016200
X014000Y-016200
X015000Y-016200
X016000Y-016200
X017000Y-016200
X026800Y-008400
X026800Y-007400
X026800Y-006400
X026800Y-005400
X026800Y-004400
X026800Y-003400
X026800Y-002400
X026800Y-001400
X022800Y-016200
X021800Y-016200
X020800Y-016200
X019800Y-016200
X018800Y-016200
X008200Y015800
X007200Y015800
X006200Y015800
X005200Y015800
X004200Y015800
X003200Y015800
X002200Y015800
X001200Y015800
X006200Y-016200
X007200Y-016200
X008200Y-016200
X009200Y-016200
X010200Y-016200
X-008600Y-018200
X-007600Y-018200
X-006600Y-018200
X-005600Y-018200
X-004600Y-018200
X-003600Y-018200
X-002600Y-018200
X-001600Y-018200
X-016800Y-017600
X-016800Y-015600
X-019800Y-015600
X-019800Y-017600
X-019600Y016400
X-018600Y016400
X-017600Y016400
X-016600Y016400
X-015600Y016400
X-014600Y016400
X-013600Y016400
X-012600Y016400
T04
X-008600Y-005200
X-007600Y-005200
X-006600Y-005200
X-005600Y-005200
X-004600Y-005200
X-003600Y-005200
X-002600Y-005200
X-001600Y-005200
X-000600Y-005200
X000400Y-005200
X001400Y-005200
X002400Y-005200
X003400Y-005200
X004400Y-005200
X005400Y-005200
X006400Y-005200
X007400Y-005200
X008400Y-005200
X009400Y-005200
X010400Y-005200
X010400Y000800
X009400Y000800
X008400Y000800
X007400Y000800
X006400Y000800
X005400Y000800
X004400Y000800
X003400Y000800
X002400Y000800
X001400Y000800
X000400Y000800
X-000600Y000800
X-001600Y000800
X-002600Y000800
X-003600Y000800
X-004600Y000800
X-005600Y000800
X-006600Y000800
X-007600Y000800
X-008600Y000800
X025400Y011800
X024400Y011800
X023400Y011800
X022400Y011800
X021400Y011800
X020400Y011800
X019400Y011800
X018400Y011800
X018400Y008800
X019400Y008800
X020400Y008800
X021400Y008800
X022400Y008800
X023400Y008800
X024400Y008800
X025400Y008800
X-011400Y006600
X-011400Y007600
X-011400Y008600
X-011400Y009600
X-014400Y009600
X-014400Y008600
X-014400Y007600
X-014400Y006600
T05
X-024600Y-007200
X-023670Y-014200
X-024600Y009800
X-023670Y002800
X-025600Y-001200
X-028600Y-001200
X-028600Y-003200
X-025600Y-003200
X-022600Y-003200
X-019600Y-003200
X-019600Y-001200
X-022600Y-001200
T06
X-018600Y-009200
X-018600Y-013100
X-018600Y007800
X-018600Y003900
T07
X-000200Y-011200
X-000200Y-006200
X001600Y-014200
X001600Y-009200
X002600Y-014200
X002600Y-009200
X-002600Y-014200
X-002600Y-009200
X-001600Y-014200
X-001600Y-009200
X-007600Y-014200
X-007600Y-009200
X-006600Y-014200
X-006600Y-009200
X-012600Y-014200
X-012600Y-009200
X-011600Y-014200
X-011600Y-009200
X022400Y001800
X017400Y001800
X022400Y002800
X017400Y002800
X022400Y-003200
X017400Y-003200
X022400Y-002200
X017400Y-002200
X022400Y-008200
X017400Y-008200
X022400Y-007200
X017400Y-007200
X022400Y-013200
X017400Y-013200
X022400Y-012200
X017400Y-012200
X003400Y011800
X003400Y006800
X002400Y011800
X002400Y006800
X-001000Y011800
X-001000Y006800
X-002000Y011800
X-002000Y006800
X008400Y011800
X008400Y006800
X007400Y011800
X007400Y006800
X013400Y011800
X013400Y006800
X012400Y011800
X012400Y006800
X-011400Y-001000
X-011400Y-006000
X-012800Y-001000
X-012800Y-006000
X-010000Y011200
X-010000Y006200
X-015000Y005000
X-010000Y005000
T08
X028000Y018400
X028000Y-017600
X-028000Y-017600
X-028000Y018400
M30
